<svg width="64" height="65" viewBox="0 0 64 65" fill="none" xmlns="http://www.w3.org/2000/svg">
<path d="M30.0233 13.5746C25.8845 10.9252 20.9628 9.38818 15.685 9.38818C12.5764 9.38818 9.58798 9.92172 6.80909 10.9039C5.9906 11.1932 5.44336 11.967 5.44336 12.8352V51.7534C5.44336 52.4184 5.76612 53.0419 6.30901 53.4258C6.8519 53.8098 7.54737 53.9063 8.17429 53.6847C10.5208 52.8553 13.0479 52.4031 15.685 52.4031C21.1336 52.4031 26.1267 54.3347 30.0233 57.5532V13.5746Z" fill="#4939EF"/>
<path d="M34.12 57.5532C38.0166 54.3347 43.0097 52.4031 48.4583 52.4031C51.0954 52.4031 53.6225 52.8553 55.969 53.6847C56.5959 53.9063 57.2914 53.8098 57.8343 53.4258C58.3772 53.0419 58.7 52.4184 58.7 51.7534V12.8352C58.7 11.967 58.1527 11.1932 57.3342 10.9039C54.5553 9.92172 51.5669 9.38818 48.4583 9.38818C43.1805 9.38818 38.2589 10.9252 34.12 13.5746V57.5532Z" fill="#4939EF"/>
</svg>
