<svg width="65" height="65" viewBox="0 0 65 65" fill="none" xmlns="http://www.w3.org/2000/svg">
<path d="M31.8208 6.75908C32.3873 6.454 33.0693 6.454 33.6359 6.75908L58.5212 20.1589C59.1412 20.4927 59.5279 21.1401 59.5279 21.8443C59.5279 22.5485 59.1412 23.1959 58.5212 23.5298L33.6359 36.9296C33.0693 37.2346 32.3873 37.2346 31.8208 36.9296L6.93542 23.5298C6.31537 23.1959 5.92871 22.5485 5.92871 21.8443C5.92871 21.1401 6.31537 20.4927 6.93542 20.1589L31.8208 6.75908Z" fill="#4939EF"/>
<path d="M10.4328 29.7612L30.0057 40.3004C31.7054 41.2157 33.7512 41.2157 35.4509 40.3004L55.0238 29.7612L58.5212 31.6444C59.1412 31.9783 59.5279 32.6256 59.5279 33.3298C59.5279 34.0341 59.1412 34.6814 58.5212 35.0153L33.6359 48.4151C33.0693 48.7202 32.3873 48.7202 31.8208 48.4151L6.93542 35.0153C6.31537 34.6814 5.92871 34.0341 5.92871 33.3298C5.92871 32.6256 6.31537 31.9783 6.93542 31.6444L10.4328 29.7612Z" fill="#4939EF"/>
<path d="M30.0057 51.786L10.4328 41.2467L6.93542 43.1299C6.31537 43.4638 5.92871 44.1112 5.92871 44.8154C5.92871 45.5196 6.31537 46.167 6.93542 46.5008L31.8208 59.9006C32.3873 60.2057 33.0693 60.2057 33.6359 59.9006L58.5212 46.5008C59.1412 46.167 59.5279 45.5196 59.5279 44.8154C59.5279 44.1112 59.1412 43.4638 58.5212 43.1299L55.0238 41.2467L35.4509 51.786C33.7512 52.7012 31.7054 52.7012 30.0057 51.786Z" fill="#4939EF"/>
</svg>
