<svg width="65" height="65" viewBox="0 0 65 65" fill="none" xmlns="http://www.w3.org/2000/svg">
<path fill-rule="evenodd" clip-rule="evenodd" d="M24.1378 13.3534C25.0066 13.3534 25.7702 13.9293 26.0089 14.7648L28.1189 22.1497C29.0424 25.3821 31.5691 27.9088 34.8015 28.8323L42.1864 30.9423C43.0219 31.181 43.5978 31.9446 43.5978 32.8134C43.5978 33.6823 43.0219 34.4458 42.1864 34.6845L34.8015 36.7945C31.5691 37.7181 29.0424 40.2447 28.1189 43.4771L26.0089 50.8621C25.7702 51.6975 25.0066 52.2735 24.1378 52.2735C23.2689 52.2735 22.5053 51.6975 22.2667 50.8621L20.1567 43.4771C19.2331 40.2447 16.7065 37.7181 13.4741 36.7945L6.08913 34.6845C5.25371 34.4458 4.67773 33.6823 4.67773 32.8134C4.67773 31.9446 5.25371 31.181 6.08913 30.9423L13.4741 28.8323C16.7065 27.9088 19.2331 25.3821 20.1567 22.1497L22.2667 14.7648C22.5053 13.9293 23.2689 13.3534 24.1378 13.3534Z" fill="#4939EF"/>
<path fill-rule="evenodd" clip-rule="evenodd" d="M47.4898 5.56934C48.3828 5.56934 49.1612 6.17707 49.3777 7.04337L50.0494 9.73005C50.6595 12.1703 52.5649 14.0757 55.0052 14.6858L57.6918 15.3575C58.5581 15.574 59.1659 16.3524 59.1659 17.2454C59.1659 18.1383 58.5581 18.9167 57.6918 19.1333L55.0052 19.8049C52.5649 20.415 50.6595 22.3204 50.0494 24.7607L49.3777 27.4474C49.1612 28.3137 48.3828 28.9214 47.4898 28.9214C46.5969 28.9214 45.8185 28.3137 45.6019 27.4474L44.9303 24.7607C44.3202 22.3204 42.4148 20.415 39.9745 19.8049L37.2878 19.1333C36.4216 18.9167 35.8138 18.1383 35.8138 17.2454C35.8138 16.3524 36.4216 15.574 37.2878 15.3575L39.9745 14.6858C42.4148 14.0757 44.3202 12.1703 44.9303 9.73005L45.6019 7.04337C45.8185 6.17707 46.5969 5.56934 47.4898 5.56934Z" fill="#4939EF"/>
<path fill-rule="evenodd" clip-rule="evenodd" d="M43.5978 40.5974C44.4355 40.5974 45.1791 41.1334 45.444 41.9281L46.4669 44.9969C46.8543 46.159 47.7663 47.071 48.9284 47.4584L51.9972 48.4813C52.7919 48.7462 53.3279 49.4898 53.3279 50.3275C53.3279 51.1651 52.7919 51.9087 51.9972 52.1736L48.9284 53.1965C47.7663 53.5839 46.8543 54.4959 46.4669 55.6581L45.444 58.7269C45.1791 59.5215 44.4355 60.0575 43.5978 60.0575C42.7602 60.0575 42.0166 59.5215 41.7517 58.7269L40.7288 55.6581C40.3414 54.4959 39.4294 53.5839 38.2672 53.1965L35.1984 52.1736C34.4038 51.9087 33.8678 51.1651 33.8678 50.3275C33.8678 49.4898 34.4038 48.7462 35.1984 48.4813L38.2672 47.4584C39.4294 47.071 40.3414 46.159 40.7288 44.9969L41.7517 41.9281C42.0166 41.1334 42.7602 40.5974 43.5978 40.5974Z" fill="#4939EF"/>
</svg>
