<svg width="41" height="40" viewBox="0 0 41 40" fill="none" xmlns="http://www.w3.org/2000/svg">
<path fill-rule="evenodd" clip-rule="evenodd" d="M0 3.84615C0 1.72198 1.76502 0 3.94228 0H14.9807C17.1579 0 18.923 1.72198 18.923 3.84615V30.7692C18.923 35.8672 14.6869 40 9.46148 40C4.23605 40 0 35.8672 0 30.7692V3.84615ZM9.46148 33.0769C10.7678 33.0769 11.8269 32.0437 11.8269 30.7692C11.8269 29.4947 10.7678 28.4615 9.46148 28.4615C8.15512 28.4615 7.09611 29.4947 7.09611 30.7692C7.09611 32.0437 8.15512 33.0769 9.46148 33.0769Z" fill="#9067FF"/>
<path d="M17.8065 40H37.0577C39.235 40 41 38.278 41 36.1538V25.3846C41 23.2604 39.235 21.5385 37.0577 21.5385H36.7638L18.382 39.4721C18.1945 39.655 18.0025 39.831 17.8065 40Z" fill="#9067FF"/>
<path d="M22.0522 31.5394L35.6646 18.2589C37.2042 16.7569 37.2042 14.3216 35.6646 12.8196L27.8593 5.2046C26.3197 3.70258 23.8236 3.70258 22.284 5.2046L22.0765 5.40713V30.7692C22.0765 31.0279 22.0683 31.2847 22.0522 31.5394Z" fill="#9067FF"/>
</svg>
