<svg width="48" height="48" viewBox="0 0 48 48" fill="none" xmlns="http://www.w3.org/2000/svg">
<path fill-rule="evenodd" clip-rule="evenodd" d="M41.1963 3C40.4455 3 39.7115 3.22223 39.0868 3.63867L28.9289 10.4107C26.078 12.3112 23.5112 14.5867 21.2931 17.167C25.5215 19.0714 28.9276 22.4775 30.832 26.706C33.4123 24.4878 35.6878 21.921 37.5884 19.0702L44.3604 8.91218C44.7768 8.2875 44.999 7.55354 44.999 6.80278C44.999 4.70256 43.2965 3 41.1963 3ZM24.5981 31.0498C26.2158 30.151 27.7598 29.1366 29.219 28.0166C27.4953 23.8419 24.1571 20.5037 19.9824 18.78C18.8624 20.2392 17.848 21.7832 16.9492 23.4009L16.3922 24.4036C19.8652 25.397 22.602 28.1339 23.5954 31.6068L24.5981 31.0498ZM13.4999 27C9.35773 27 5.99991 30.3578 5.99991 34.5C5.99991 36.1569 4.65677 37.5 2.99991 37.5C2.93198 37.5 2.86437 37.4977 2.7972 37.4933C2.24489 37.4568 1.71736 37.7274 1.42484 38.1973C1.13231 38.6672 1.12233 39.26 1.39888 39.7395C3.21048 42.8804 6.60674 45 10.4999 45C16.2989 45 20.9999 40.299 20.9999 34.5C20.9999 30.3578 17.6421 27 13.4999 27Z" fill="#9067FF"/>
</svg>
