<svg width="38" height="40" viewBox="0 0 38 40" fill="none" xmlns="http://www.w3.org/2000/svg">
<path fill-rule="evenodd" clip-rule="evenodd" d="M17.156 0.5C15.3229 0.5 13.7584 1.8253 13.4571 3.6335L13.0997 5.77746C13.0594 6.01928 12.8711 6.29959 12.5065 6.47493C11.8183 6.80585 11.1596 7.18759 10.535 7.61521C10.2021 7.84319 9.86542 7.8664 9.63562 7.78031L7.59726 7.01667C5.88062 6.37356 3.95065 7.06577 3.03408 8.65332L1.19011 11.8472C0.273539 13.4347 0.63905 15.4522 2.05432 16.6173L3.73537 18.0012C3.92462 18.157 4.07283 18.4596 4.04263 18.8614C4.01437 19.2375 4 19.6172 4 20C4 20.3829 4.01438 20.7628 4.04266 21.139C4.07288 21.5408 3.92466 21.8434 3.7354 21.9992L2.05432 23.3832C0.63905 24.5483 0.273539 26.5658 1.19011 28.1533L3.03408 31.3472C3.95065 32.9347 5.88062 33.6269 7.59726 32.9838L9.63607 32.22C9.86587 32.1339 10.2025 32.1571 10.5355 32.3851C11.1599 32.8126 11.8185 33.1942 12.5065 33.5251C12.8711 33.7004 13.0594 33.9807 13.0997 34.2225L13.4571 36.3665C13.7584 38.1747 15.3229 39.5 17.156 39.5H20.844C22.6771 39.5 24.2416 38.1747 24.5429 36.3665L24.9003 34.2225C24.9406 33.9807 25.1289 33.7004 25.4935 33.5251C26.1816 33.1942 26.8404 32.8124 27.465 32.3848C27.7979 32.1568 28.1346 32.1336 28.3644 32.2197L30.4027 32.9833C32.1194 33.6264 34.0493 32.9342 34.9659 31.3467L36.8099 28.1528C37.7265 26.5653 37.3609 24.5478 35.9457 23.3827L34.2646 21.9988C34.0754 21.843 33.9272 21.5404 33.9574 21.1386C33.9856 20.7625 34 20.3828 34 20C34 19.6171 33.9856 19.2372 33.9573 18.861C33.9271 18.4592 34.0753 18.1566 34.2646 18.0008L35.9457 16.6168C37.361 15.4517 37.7265 13.4342 36.8099 11.8467L34.9659 8.65284C34.0493 7.06529 32.1194 6.37307 30.4027 7.01618L28.3639 7.77999C28.1341 7.86608 27.7975 7.84288 27.4645 7.61492C26.8401 7.18742 26.1815 6.80577 25.4935 6.47493C25.1289 6.29959 24.9406 6.01928 24.9003 5.77746L24.5429 3.6335C24.2416 1.8253 22.6771 0.5 20.844 0.5H17.156ZM19.0002 27.5C23.1424 27.5 26.5002 24.1421 26.5002 20C26.5002 15.8579 23.1424 12.5 19.0002 12.5C14.8581 12.5 11.5002 15.8579 11.5002 20C11.5002 24.1421 14.8581 27.5 19.0002 27.5Z" fill="#9067FF"/>
</svg>
