<svg width="48" height="48" viewBox="0 0 48 48" fill="none" xmlns="http://www.w3.org/2000/svg">
<path d="M24 1.5C14.8873 1.5 7.5 8.8873 7.5 18C7.5 24.1015 10.8126 29.4276 15.7303 32.2809C17.1012 33.0763 17.9597 34.2968 17.9986 35.5251C18.02 36.2026 18.4931 36.7816 19.1528 36.9375C19.8556 37.1036 20.5717 37.2343 21.2992 37.3278C21.9464 37.4109 22.5004 36.8925 22.5004 36.24V26.9179C21.8618 26.8472 21.2361 26.732 20.6265 26.5751C19.8242 26.3686 19.3412 25.5508 19.5477 24.7485C19.7542 23.9463 20.572 23.4633 21.3743 23.6698C22.2119 23.8854 23.0915 24.0004 24.0004 24.0004C24.9092 24.0004 25.7889 23.8854 26.6265 23.6698C27.4288 23.4633 28.2465 23.9463 28.453 24.7485C28.6595 25.5508 28.1765 26.3686 27.3743 26.5751C26.7647 26.732 26.1389 26.8472 25.5004 26.9179V36.2399C25.5004 36.8924 26.0544 37.4109 26.7016 37.3277C27.4288 37.2342 28.1447 37.1035 28.8472 36.9375C29.5069 36.7816 29.98 36.2026 30.0014 35.5251C30.0403 34.2968 30.8988 33.0763 32.2697 32.2809C37.1874 29.4276 40.5 24.1015 40.5 18C40.5 8.8873 33.1127 1.5 24 1.5Z" fill="#9067FF"/>
<path fill-rule="evenodd" clip-rule="evenodd" d="M18.0263 39.7993C18.1807 38.9854 18.9656 38.4508 19.7796 38.6051C21.1455 38.8643 22.5562 39.0001 24 39.0001C25.4438 39.0001 26.8545 38.8643 28.2205 38.6051C29.0344 38.4508 29.8193 38.9854 29.9737 39.7993C30.1281 40.6132 29.5935 41.3982 28.7796 41.5526C27.2302 41.8465 25.6324 42.0001 24 42.0001C22.3676 42.0001 20.7698 41.8465 19.2204 41.5526C18.4065 41.3982 17.8719 40.6132 18.0263 39.7993Z" fill="#9067FF"/>
<path fill-rule="evenodd" clip-rule="evenodd" d="M19.5081 44.6879C19.5943 43.864 20.3321 43.2659 21.1561 43.3521C22.0902 43.4499 23.039 43.5 24 43.5C24.961 43.5 25.9098 43.4499 26.8439 43.3521C27.6679 43.2659 28.4057 43.864 28.4919 44.6879C28.5781 45.5119 27.98 46.2497 27.1561 46.3359C26.1184 46.4444 25.0654 46.5 24 46.5C22.9346 46.5 21.8816 46.4444 20.8439 46.3359C20.02 46.2497 19.4219 45.5119 19.5081 44.6879Z" fill="#9067FF"/>
</svg>
